nColumns=19
nRows=79
DataType=double
version=3
OpenSimVersion=4.1
endheader
time	ground_force_calcn_r_vx	ground_force_calcn_r_vy	ground_force_calcn_r_vz	ground_force_calcn_r_px	ground_force_calcn_r_py	ground_force_calcn_r_pz	ground_force_calcn_r_mx	ground_force_calcn_r_my	ground_force_calcn_r_mz	ground_force_calcn_l_vx	ground_force_calcn_l_vy	ground_force_calcn_l_vz	ground_force_calcn_l_px	ground_force_calcn_l_py	ground_force_calcn_l_pz	ground_force_calcn_l_mx	ground_force_calcn_l_my	ground_force_calcn_l_mz
0.61	-4.62864	13.2208	-0.991891	1.42229	0	-0.339996	-0.76964	2.19833	-0.164929	0	0	0	0	0	0	0	0	0
0.62	-15.287	52.5322	-1.41848	1.37857	0	-0.32164	-0.59128	2.03187	-0.0548646	0	0	0	0	0	0	0	0	0
0.63	-29.3828	159.889	2.05291	1.37275	0	-0.31754	-0.234633	1.27678	0.0163933	0	0	0	0	0	0	0	0	0
0.64	-30.3912	367.373	12.4437	1.3679	0	-0.315988	-0.0133591	0.161487	0.0054699	0	0	0	0	0	0	0	0	0
0.65	-22.3309	640.316	27.6133	1.35985	0	-0.314331	0.0239921	-0.687947	-0.0296674	0	0	0	0	0	0	0	0	0
0.66	-36.0124	872.718	37.245	1.35248	0	-0.312797	0.0293521	-0.711315	-0.0303568	0	0	0	0	0	0	0	0	0
0.67	-77.7133	990.383	31.562	1.34795	0	-0.312066	-0.0150801	0.192182	0.00612453	0	0	0	0	0	0	0	0	0
0.68	-134.456	1036.6	14.6564	1.34424	0	-0.311857	-0.196952	1.51841	0.0214688	0	0	0	0	0	0	0	0	0
0.69	-191.514	1111.34	0.923128	1.33811	0	-0.310839	-0.416982	2.4197	0.00200992	0	0	0	0	0	0	0	0	0
0.7	-220.634	1248.21	-1.74696	1.32681	0	-0.309518	-0.397794	2.25047	-0.0031497	0	0	0	0	0	0	0	0	0
0.71	-214.608	1409.3	3.46942	1.30977	0	-0.309366	-0.124366	0.816697	0.00201054	0	0	0	0	0	0	0	0	0
0.72	-188.837	1554.67	11.1135	1.289	0	-0.309766	0.191141	-1.57364	-0.011249	0	0	0	0	0	0	0	0	0
0.73	-155.593	1669.86	17.9199	1.26693	0	-0.309943	0.396595	-4.25635	-0.0456763	0	0	0	0	0	0	0	0	0
0.74	-120.622	1751.23	22.8476	1.24508	0	-0.310156	0.451796	-6.55932	-0.0855768	0	0	0	0	0	0	0	0	0
0.75	-85.9953	1796.49	27.1426	1.22344	0	-0.310476	0.38617	-8.06732	-0.121887	0	0	0	0	0	0	0	0	0
0.76	-51.7602	1804.74	31.8352	1.20202	0	-0.310899	0.249433	-8.69707	-0.153414	0	0	0	0	0	0	0	0	0
0.77	-17.3088	1776.66	36.6549	1.18084	0	-0.311411	0.083983	-8.62042	-0.177851	0	0	0	0	0	0	0	0	0
0.78	17.9446	1716.01	41.1738	1.1595	0	-0.311988	-0.0849064	-8.11944	-0.194817	0	0	0	0	0	0	0	0	0
0.79	54.4385	1627.4	45.1365	1.13756	0	-0.312758	-0.249071	-7.44582	-0.206512	0	0	0	0	0	0	0	0	0
0.8	90.8348	1513.2	48.0111	1.11456	0	-0.313676	-0.404197	-6.73343	-0.21364	0	0	0	0	0	0	0	0	0
0.81	125.265	1373.31	48.8597	1.09042	0	-0.314695	-0.545949	-5.98538	-0.212948	0	0	0	0	0	0	0	0	0
0.82	152.741	1209.82	47.4649	1.06562	0	-0.31579	-0.647389	-5.1278	-0.201179	0	0	0	0	0	0	0	0	0
0.83	167.354	1030.43	44.3077	1.04111	0	-0.316746	-0.664481	-4.09131	-0.175924	0	0	0	0	0	0	0	0	0
0.84	168.857	845.865	39.3405	1.01755	0	-0.31745	-0.573371	-2.87223	-0.133585	0	0	0	0	0	0	0	0	0
0.85	160.432	667.589	32.7084	0.994745	0	-0.31789	-0.375444	-1.5623	-0.0765446	0	0	0	0	0	0	0	0	0
0.86	145.233	506.937	25.8401	0.972725	0	-0.31745	-0.0952114	-0.332335	-0.0169401	0	0	0	0	0	0	0	0	0
0.87	126.734	370.816	20.0719	0.951902	0	-0.315414	0.216122	0.632362	0.0342291	0	0	0	0	0	0	0	0	0
0.88	107.46	258.512	15.533	0.932	0	-0.312008	0.497675	1.19723	0.0719372	0	0	0	0	0	0	0	0	0
0.89	86.6355	167.528	12.0598	0.91316	0	-0.307634	0.684781	1.32417	0.0953225	0	0	0	0	0	0	0	0	0
0.9	62.6239	98.2154	9.53187	0.895377	0	-0.300917	0.707322	1.10932	0.10766	0	0	0	0	0	0	0	0	0
0.91	36.8563	50.5631	7.35871	0.875805	0	-0.28962	0.544439	0.746914	0.108702	0	0	0	0	0	0	0	0	0
0.92	16.1085	21.695	5.04034	0.845795	0	-0.279181	0.26338	0.354721	0.0824114	0	0	0	0	0	0	0	0	0
0.93	0	0	0	0	0	0	0	0	0	0	0	0	0	0	0	0	0	0
0.94	0	0	0	0	0	0	0	0	0	0	0	0	0	0	0	0	0	0
0.95	0	0	0	0	0	0	0	0	0	0	0	0	0	0	0	0	0	0
0.96	0	0	0	0	0	0	0	0	0	0	0	0	0	0	0	0	0	0
0.97	0	0	0	0	0	0	0	0	0	0	0	0	0	0	0	0	0	0
0.98	0	0	0	0	0	0	0	0	0	0	0	0	0	0	0	0	0	0
0.99	0	0	0	0	0	0	0	0	0	-6.81356	15.4389	-3.62678	1.3945	0	-0.340182	-0.249174	0.564604	-0.132633
1	0	0	0	0	0	0	0	0	0	-23.338	58.6324	-8.17493	1.38133	0	-0.366636	-0.723049	1.81653	-0.253273
1.01	0	0	0	0	0	0	0	0	0	-47.9671	175.525	-12.4054	1.38261	0	-0.360722	-0.868388	3.17767	-0.224586
1.02	0	0	0	0	0	0	0	0	0	-59.8005	403.001	-12.8348	1.37962	0	-0.354229	-0.594699	4.00773	-0.127638
1.03	0	0	0	0	0	0	0	0	0	-57.7495	711.848	-7.05338	1.37135	0	-0.351141	-0.306643	3.77983	-0.0374526
1.04	0	0	0	0	0	0	0	0	0	-76.0315	993.34	3.83651	1.36257	0	-0.35048	-0.192931	2.52061	0.00973517
1.05	0	0	0	0	0	0	0	0	0	-120.991	1164.3	15.3387	1.35497	0	-0.351418	-0.0680772	0.655105	0.0086305
1.06	0	0	0	0	0	0	0	0	0	-167.771	1261.94	23.952	1.34538	0	-0.352982	0.156431	-1.17665	-0.0223331
1.07	0	0	0	0	0	0	0	0	0	-197.208	1373.27	29.2001	1.33154	0	-0.353196	0.341422	-2.37752	-0.0505536
1.08	0	0	0	0	0	0	0	0	0	-197.866	1516.02	30.5138	1.31519	0	-0.351963	0.337699	-2.5874	-0.0520781
1.09	0	0	0	0	0	0	0	0	0	-178.879	1649.88	28.4509	1.29797	0	-0.350586	0.187487	-1.72928	-0.0298201
1.1	0	0	0	0	0	0	0	0	0	-155.174	1744.11	26.1071	1.27987	0	-0.349368	0.000320355	-0.00360069	-5.38977e-05
1.11	0	0	0	0	0	0	0	0	0	-131.922	1800.92	25.0837	1.26138	0	-0.348406	-0.16431	2.24306	0.031242
1.12	0	0	0	0	0	0	0	0	0	-109.988	1828.81	24.7372	1.24286	0	-0.347506	-0.281934	4.68785	0.0634095
1.13	0	0	0	0	0	0	0	0	0	-85.4363	1826.11	23.6019	1.22432	0	-0.346492	-0.332863	7.11462	0.0919541
1.14	0	0	0	0	0	0	0	0	0	-56.6168	1789.8	20.6919	1.20548	0	-0.345225	-0.297427	9.40243	0.108702
1.15	0	0	0	0	0	0	0	0	0	-25.1124	1721.35	16.0582	1.18628	0	-0.343673	-0.167321	11.4691	0.106994
1.16	0	0	0	0	0	0	0	0	0	7.88663	1625.97	10.1326	1.16656	0	-0.341748	0.064128	13.2211	0.0823906
1.17	0	0	0	0	0	0	0	0	0	41.4858	1508.53	2.76625	1.14576	0	-0.339396	0.399545	14.5284	0.0266414
1.18	0	0	0	0	0	0	0	0	0	74.4448	1370.75	-5.88565	1.12353	0	-0.336983	0.827374	15.2344	-0.0654127
1.19	0	0	0	0	0	0	0	0	0	102.286	1215.96	-13.6783	1.10006	0	-0.334484	1.27928	15.2078	-0.171073
1.2	0	0	0	0	0	0	0	0	0	120.914	1050.33	-18.7875	1.07607	0	-0.331772	1.65955	14.4158	-0.257858
1.21	0	0	0	0	0	0	0	0	0	129.669	880.647	-21.8292	1.05229	0	-0.329332	1.90728	12.9533	-0.321083
1.22	0	0	0	0	0	0	0	0	0	129.554	715.076	-23.698	1.02907	0	-0.32749	1.99641	11.0192	-0.365182
1.23	0	0	0	0	0	0	0	0	0	121.02	562.034	-24.1589	1.00679	0	-0.32576	1.90975	8.86917	-0.381239
1.24	0	0	0	0	0	0	0	0	0	106.596	426.482	-23.3538	0.985866	0	-0.323892	1.68407	6.73782	-0.368957
1.25	0	0	0	0	0	0	0	0	0	89.3598	309.485	-21.9517	0.965938	0	-0.322686	1.38381	4.79263	-0.339941
1.26	0	0	0	0	0	0	0	0	0	70.9845	211.836	-19.6709	0.947286	0	-0.321688	1.05192	3.13922	-0.291505
1.27	0	0	0	0	0	0	0	0	0	52.2325	134.058	-16.0143	0.93123	0	-0.318314	0.714446	1.83367	-0.219047
1.28	0	0	0	0	0	0	0	0	0	34.3213	75.2268	-11.6152	0.9152	0	-0.312116	0.402924	0.883145	-0.13636
1.29	0	0	0	0	0	0	0	0	0	18.4611	35.1113	-7.28579	0.8891	0	-0.30532	0.141263	0.268669	-0.0557504
1.3	0	0	0	0	0	0	0	0	0	6.93636	13.2347	-3.47504	0.837519	0	-0.284779	-0.039238	-0.0748666	0.0196578
1.31	0	0	0	0	0	0	0	0	0	0	0	0	0	0	0	0	0	0
1.32	0	0	0	0	0	0	0	0	0	0	0	0	0	0	0	0	0	0
1.33	0	0	0	0	0	0	0	0	0	0	0	0	0	0	0	0	0	0
1.34	0	0	0	0	0	0	0	0	0	0	0	0	0	0	0	0	0	0
1.35	0	0	0	0	0	0	0	0	0	0	0	0	0	0	0	0	0	0
1.36	0	0	0	0	0	0	0	0	0	0	0	0	0	0	0	0	0	0
1.37	-3.66802	26.8724	-3.31825	1.32619	0	-0.272914	-0.0314546	0.230441	-0.0284552	0	0	0	0	0	0	0	0	0
1.38	-9.02448	96.3944	-6.06543	1.32903	0	-0.28885	-0.0559792	0.597939	-0.0376241	0	0	0	0	0	0	0	0	0
1.39	-8.52567	258.603	-7.47868	1.33525	0	-0.291732	-0.0344989	1.04643	-0.0302623	0	0	0	0	0	0	0	0	0
